<?xml version="1.0" encoding="UTF-8" standalone="no"?>
<!-- Created with Inkscape (http://www.inkscape.org/) -->

<svg
   xmlns:dc="http://purl.org/dc/elements/1.1/"
   xmlns:cc="http://creativecommons.org/ns#"
   xmlns:rdf="http://www.w3.org/1999/02/22-rdf-syntax-ns#"
   xmlns:svg="http://www.w3.org/2000/svg"
   xmlns="http://www.w3.org/2000/svg"
   xmlns:sodipodi="http://sodipodi.sourceforge.net/DTD/sodipodi-0.dtd"
   xmlns:inkscape="http://www.inkscape.org/namespaces/inkscape"
   width="13.071528mm"
   height="13.010737mm"
   viewBox="0 0 13.071528 13.010737"
   version="1.1"
   id="svg4923"
   inkscape:version="0.92.1 r15371"
   sodipodi:docname="face.svg">
  <defs
     id="defs4917" />
  <sodipodi:namedview
     id="base"
     pagecolor="#ffffff"
     bordercolor="#666666"
     borderopacity="1.0"
     inkscape:pageopacity="0.0"
     inkscape:pageshadow="2"
     inkscape:zoom="2.8"
     inkscape:cx="-8.0714584"
     inkscape:cy="52.544192"
     inkscape:document-units="mm"
     inkscape:current-layer="layer1"
     showgrid="false"
     fit-margin-top="0"
     fit-margin-left="0"
     fit-margin-right="0"
     fit-margin-bottom="0"
     inkscape:window-width="1440"
     inkscape:window-height="838"
     inkscape:window-x="-8"
     inkscape:window-y="-8"
     inkscape:window-maximized="1" />
  <metadata
     id="metadata4920">
    <rdf:RDF>
      <cc:Work
         rdf:about="">
        <dc:format>image/svg+xml</dc:format>
        <dc:type
           rdf:resource="http://purl.org/dc/dcmitype/StillImage" />
        <dc:title></dc:title>
      </cc:Work>
    </rdf:RDF>
  </metadata>
  <g
     inkscape:label="Layer 1"
     inkscape:groupmode="layer"
     id="layer1"
     transform="translate(-177.65849,-150.08482)">
    <path
       style="fill:#9700f2;fill-opacity:1;stroke-width:1"
       d="m 182.25097,162.84498 c -4.79438,-1.93137 -6.11372,-7.41017 -2.62464,-10.89926 1.32062,-1.32061 2.66237,-1.8609 4.62139,-1.8609 3.77532,0 6.4823,2.70698 6.4823,6.48229 0,2.66293 -1.34393,4.80801 -3.72973,5.95315 -1.2559,0.60281 -3.65228,0.76665 -4.74932,0.32472 z m 4.24571,-0.95414 c 2.96711,-1.3611 4.35556,-4.78064 3.07477,-7.57268 -1.3611,-2.96711 -4.78064,-4.35556 -7.57268,-3.07477 -2.96711,1.3611 -4.35556,4.78064 -3.07477,7.57268 1.3611,2.96711 4.78064,4.35556 7.57268,3.07477 z m -3.04271,-3.86852 c 0,-0.80036 -0.11906,-1.45521 -0.26458,-1.45521 -0.14552,0 -0.26458,-0.23812 -0.26458,-0.52916 0,-0.29104 0.11906,-0.52917 0.26458,-0.52917 0.14552,0 0.26458,-0.29347 0.26458,-0.65215 0,-0.69649 0.65876,-1.19993 1.57011,-1.19993 0.37017,0 0.54656,0.17077 0.54656,0.52916 0,0.29398 -0.17639,0.52917 -0.39687,0.52917 -0.21829,0 -0.39688,0.17859 -0.39688,0.39688 0,0.21828 0.17859,0.39687 0.39688,0.39687 0.22048,0 0.39687,0.23519 0.39687,0.52917 0,0.29398 -0.17639,0.52916 -0.39687,0.52916 -0.30468,0 -0.39688,0.33808 -0.39688,1.45521 0,1.37584 -0.0361,1.45521 -0.66146,1.45521 -0.62538,0 -0.66146,-0.0794 -0.66146,-1.45521 z"
       id="path5485"
       inkscape:connector-curvature="0" />
  </g>
</svg>
