<?xml version="1.0" encoding="UTF-8" standalone="no"?>
<!-- Created with Inkscape (http://www.inkscape.org/) -->

<svg
   xmlns:dc="http://purl.org/dc/elements/1.1/"
   xmlns:cc="http://creativecommons.org/ns#"
   xmlns:rdf="http://www.w3.org/1999/02/22-rdf-syntax-ns#"
   xmlns:svg="http://www.w3.org/2000/svg"
   xmlns="http://www.w3.org/2000/svg"
   xmlns:sodipodi="http://sodipodi.sourceforge.net/DTD/sodipodi-0.dtd"
   xmlns:inkscape="http://www.inkscape.org/namespaces/inkscape"
   width="7.2936459mm"
   height="10.170935mm"
   viewBox="0 0 7.2936449 10.170934"
   version="1.1"
   id="svg8"
   inkscape:version="0.92.1 r15371"
   sodipodi:docname="icon6.svg">
  <defs
     id="defs2" />
  <sodipodi:namedview
     id="base"
     pagecolor="#ffffff"
     bordercolor="#666666"
     borderopacity="1.0"
     inkscape:pageopacity="0.0"
     inkscape:pageshadow="2"
     inkscape:zoom="7.9195959"
     inkscape:cx="40.189616"
     inkscape:cy="14.640164"
     inkscape:document-units="mm"
     inkscape:current-layer="layer1"
     showgrid="false"
     fit-margin-top="0"
     fit-margin-left="0"
     fit-margin-right="0"
     fit-margin-bottom="0"
     inkscape:window-width="1440"
     inkscape:window-height="838"
     inkscape:window-x="-8"
     inkscape:window-y="-8"
     inkscape:window-maximized="1" />
  <metadata
     id="metadata5">
    <rdf:RDF>
      <cc:Work
         rdf:about="">
        <dc:format>image/svg+xml</dc:format>
        <dc:type
           rdf:resource="http://purl.org/dc/dcmitype/StillImage" />
        <dc:title></dc:title>
      </cc:Work>
    </rdf:RDF>
  </metadata>
  <g
     inkscape:label="Layer 1"
     inkscape:groupmode="layer"
     id="layer1"
     transform="translate(-53.75478,-44.081948)">
    <path
       style="fill:#a92bfe;stroke-width:1"
       d="m 55.26623,52.075075 c 0,-2.031265 -0.04957,-2.246861 -0.553355,-2.406756 -0.383952,-0.121862 -0.512661,-0.331243 -0.420428,-0.683943 0.07311,-0.279573 -0.04879,-0.690036 -0.270899,-0.91214 -0.362046,-0.362046 -0.35895,-0.453415 0.02993,-0.883124 0.238567,-0.263614 0.362746,-0.664354 0.275952,-0.890533 -0.102324,-0.266654 0.03021,-0.470909 0.376962,-0.580965 0.294122,-0.09335 0.609992,-0.406738 0.701933,-0.696418 0.11464,-0.3612 0.317967,-0.478826 0.647112,-0.37436 0.268872,0.08534 0.666751,-0.03447 0.904703,-0.272425 0.389951,-0.389951 0.459559,-0.389951 0.849509,0 0.237952,0.237952 0.635832,0.357762 0.904703,0.272425 0.329145,-0.104466 0.532472,0.01316 0.647113,0.37436 0.09194,0.28968 0.399435,0.60041 0.683321,0.690512 0.386039,0.122523 0.477064,0.319578 0.361084,0.781681 -0.107746,0.429296 -0.01258,0.697605 0.311844,0.879159 0.441005,0.246799 0.441742,0.286475 0.01328,0.714941 -0.26035,0.26035 -0.388735,0.658141 -0.301311,0.933589 0.105259,0.331643 -0.0146,0.53293 -0.387894,0.651408 -0.605503,0.192179 -0.594207,0.139023 -0.543393,2.557133 0.04193,1.995069 -0.174013,2.272193 -1.311977,1.683728 -0.720665,-0.37267 -0.880268,-0.373761 -1.582132,-0.01081 -1.270249,0.65687 -1.336056,0.56686 -1.336056,-1.82746 z m 2.910417,1.305087 c 0.79375,0.410464 0.79375,0.410464 0.79375,-1.02949 0,-1.55509 -0.260487,-1.848131 -1.248936,-1.405026 -0.417003,0.186936 -0.701553,0.168683 -0.980597,-0.0629 -0.645066,-0.535357 -0.945467,-0.071 -0.945467,1.461496 0,1.446388 0,1.446388 0.79375,1.035924 0.717235,-0.370896 0.870265,-0.370896 1.5875,0 z m -0.390224,-3.05347 c 0.0936,-0.151441 0.398278,-0.202949 0.677074,-0.114463 0.345692,0.109719 0.5069,0.03467 0.5069,-0.235991 0,-0.218281 0.232049,-0.470524 0.515665,-0.56054 0.314426,-0.0998 0.457756,-0.314576 0.367274,-0.550366 -0.08161,-0.212685 -0.0014,-0.563778 0.17819,-0.780206 0.245653,-0.295993 0.251857,-0.483542 0.02503,-0.756845 -0.165849,-0.199837 -0.233225,-0.541377 -0.149723,-0.758978 0.09726,-0.253466 -0.04371,-0.446772 -0.39231,-0.537932 -0.299272,-0.07826 -0.544131,-0.344772 -0.544131,-0.592246 0,-0.306837 -0.1369,-0.397419 -0.430411,-0.284789 -0.236726,0.09084 -0.593913,0.02947 -0.79375,-0.136381 -0.272946,-0.226525 -0.459192,-0.221994 -0.748624,0.01821 -0.211907,0.175867 -0.501876,0.247702 -0.644375,0.159632 -0.337957,-0.208869 -1.67503,1.128204 -1.466161,1.466161 0.08807,0.142499 0.01623,0.432468 -0.159632,0.644375 -0.249955,0.301177 -0.249955,0.469392 0,0.77057 0.175867,0.211906 0.247702,0.501875 0.159632,0.644375 -0.228263,0.369337 1.104971,1.625633 1.545706,1.456508 0.202083,-0.07755 0.446024,-0.01381 0.542092,0.141627 0.221959,0.359139 0.592036,0.362456 0.811549,0.0073 z M 55.79742,49.148983 c -1.311523,-1.396053 -0.34535,-3.574029 1.585477,-3.574029 1.260063,0 2.116666,0.871609 2.116666,2.153745 0,1.9173 -2.378123,2.829639 -3.702143,1.420284 z m 2.886345,-0.271549 c 0.505777,-0.495034 0.474751,-1.904837 -0.05355,-2.433135 -0.639373,-0.639373 -2.027665,-0.546765 -2.611469,0.174203 -1.413731,1.745884 1.052979,3.836728 2.665016,2.258932 z"
       id="path260"
       inkscape:connector-curvature="0" />
  </g>
</svg>
