<?xml version="1.0" encoding="UTF-8" standalone="no"?>
<!-- Created with Inkscape (http://www.inkscape.org/) -->

<svg
   xmlns:dc="http://purl.org/dc/elements/1.1/"
   xmlns:cc="http://creativecommons.org/ns#"
   xmlns:rdf="http://www.w3.org/1999/02/22-rdf-syntax-ns#"
   xmlns:svg="http://www.w3.org/2000/svg"
   xmlns="http://www.w3.org/2000/svg"
   xmlns:sodipodi="http://sodipodi.sourceforge.net/DTD/sodipodi-0.dtd"
   xmlns:inkscape="http://www.inkscape.org/namespaces/inkscape"
   width="11.371676mm"
   height="11.053146mm"
   viewBox="0 0 11.371674 11.053146"
   version="1.1"
   id="svg8"
   inkscape:version="0.92.1 r15371"
   sodipodi:docname="icon4.svg">
  <defs
     id="defs2" />
  <sodipodi:namedview
     id="base"
     pagecolor="#ffffff"
     bordercolor="#666666"
     borderopacity="1.0"
     inkscape:pageopacity="0.0"
     inkscape:pageshadow="2"
     inkscape:zoom="7.9195959"
     inkscape:cx="70.77687"
     inkscape:cy="7.0789465"
     inkscape:document-units="mm"
     inkscape:current-layer="layer1"
     showgrid="false"
     fit-margin-top="0"
     fit-margin-left="0"
     fit-margin-right="0"
     fit-margin-bottom="0"
     inkscape:window-width="1440"
     inkscape:window-height="838"
     inkscape:window-x="-8"
     inkscape:window-y="-8"
     inkscape:window-maximized="1" />
  <metadata
     id="metadata5">
    <rdf:RDF>
      <cc:Work
         rdf:about="">
        <dc:format>image/svg+xml</dc:format>
        <dc:type
           rdf:resource="http://purl.org/dc/dcmitype/StillImage" />
        <dc:title></dc:title>
      </cc:Work>
    </rdf:RDF>
  </metadata>
  <g
     inkscape:label="Layer 1"
     inkscape:groupmode="layer"
     id="layer1"
     transform="translate(-45.661902,-41.199165)">
    <path
       style="fill:#a92afe;stroke-width:1"
       d="m 48.890875,51.723117 c 0,-0.565339 -0.417893,-0.675109 -1.049459,-0.275666 -0.644896,0.407873 -1.100982,-0.20128 -0.910585,-1.216184 0.154773,-0.82501 0.116833,-0.8894 -0.524052,-0.8894 -0.987008,0 -0.995759,-1.189037 -0.01057,-1.436303 0.584856,-0.14679 0.657468,-0.274858 0.517404,-0.912566 -0.195189,-0.88869 0.465602,-1.649875 0.98306,-1.132417 0.466302,0.466302 0.717598,0.372354 1.001523,-0.374424 0.371197,-0.976322 1.237452,-0.667395 1.740749,0.620793 0.175707,0.449723 0.905754,-0.401399 0.778656,-0.907795 -0.109378,-0.4358 -0.02997,-0.680719 0.256324,-0.79058 0.376626,-0.144525 0.376636,-0.201338 1.2e-4,-0.617385 -0.506428,-0.559596 -0.263263,-1.328489 0.420139,-1.328489 0.32705,0 0.500859,-0.186515 0.500859,-0.537471 0,-0.748075 0.782969,-0.990819 1.228886,-0.380991 0.349174,0.477524 0.368055,0.477524 0.717228,0 0.445917,-0.609828 1.228886,-0.367084 1.228886,0.380991 0,0.36385 0.173621,0.537471 0.537471,0.537471 0.748075,0 0.990819,0.782968 0.380991,1.228885 -0.477524,0.349174 -0.477524,0.368055 0,0.717229 0.609828,0.445917 0.367084,1.228886 -0.380991,1.228886 -0.350956,0 -0.537471,0.173809 -0.537471,0.500859 0,0.671918 -0.825887,0.968736 -1.214959,0.436648 -0.271887,-0.371828 -0.337335,-0.37269 -0.639647,-0.0084 -0.206001,0.248216 -0.540569,0.3411 -0.861614,0.239204 -0.313348,-0.09945 -0.61652,-0.02189 -0.752344,0.192464 -0.351673,0.555015 -0.287372,0.685559 0.425856,0.864567 0.430514,0.108053 0.661458,0.351297 0.661458,0.69669 0,0.322602 -0.259353,0.629281 -0.661458,0.782161 -0.730344,0.277676 -0.818938,0.530438 -0.35021,0.999165 0.238608,0.238609 0.196843,0.437664 -0.178957,0.852919 -0.334347,0.369449 -0.576315,0.455559 -0.76104,0.270835 -0.429844,-0.429844 -0.885159,-0.316245 -1.035414,0.258331 -0.09351,0.35758 -0.360896,0.529167 -0.824609,0.529167 -0.50984,0 -0.686229,-0.136018 -0.686229,-0.529167 z m 1.143495,-0.561665 c 0.127658,-0.488164 0.272479,-0.538102 1.106673,-0.381606 0.897522,0.168376 0.941555,0.145979 0.678678,-0.34521 -0.351053,-0.65595 -0.125228,-1.287796 0.53518,-1.497402 0.65632,-0.208307 0.651814,-0.6537 -0.0066,-0.6537 -0.604004,0 -0.978555,-0.935212 -0.571151,-1.426103 0.369451,-0.445162 0.04334,-0.771277 -0.401825,-0.401825 -0.490892,0.407403 -1.426103,0.03285 -1.426103,-0.571152 0,-0.281235 -0.119063,-0.511337 -0.264584,-0.511337 -0.145521,0 -0.264583,0.174405 -0.264583,0.387566 0,0.604294 -0.956525,1.008455 -1.5875,0.670768 -0.566457,-0.303159 -0.815314,0.321088 -0.263868,0.6619 0.369326,0.228256 -0.173378,1.190183 -0.671483,1.190183 -0.556159,0 -0.477579,0.345663 0.170603,0.750459 0.432954,0.270385 0.52384,0.520224 0.405143,1.11371 -0.145238,0.726189 -0.114087,0.75734 0.612102,0.612102 0.593486,-0.118697 0.843326,-0.02781 1.11371,0.405144 0.440747,0.705748 0.650379,0.704871 0.835621,-0.0035 z m -1.099491,-1.448127 c -0.874796,-0.61273 -0.710576,-1.987445 0.278713,-2.333168 1.44627,-0.505421 2.460193,1.46505 1.205912,2.343582 -0.725756,0.50834 -0.744186,0.50821 -1.484625,-0.01041 z m 1.368264,-0.681972 c 0.361848,-0.573648 0.03088,-1.276986 -0.600905,-1.276986 -0.780684,0 -1.18728,0.909202 -0.647836,1.448646 0.482844,0.482844 0.86941,0.429704 1.248741,-0.17166 z m 4.387311,-3.016013 c 0.486496,0.440273 0.511597,0.433635 0.595312,-0.15743 0.0568,-0.40104 0.29283,-0.646293 0.674163,-0.700512 0.509414,-0.07243 0.544622,-0.150905 0.267085,-0.595312 -0.249848,-0.40007 -0.249848,-0.6237 0,-1.02377 0.277537,-0.444408 0.242329,-0.522883 -0.267085,-0.595313 -0.371099,-0.05276 -0.617425,-0.29909 -0.670189,-0.670189 -0.07243,-0.509414 -0.150905,-0.544622 -0.595313,-0.267085 -0.40007,0.249848 -0.6237,0.249848 -1.02377,0 -0.444407,-0.277537 -0.522883,-0.242329 -0.595313,0.267085 -0.05276,0.371099 -0.29909,0.617425 -0.670189,0.670189 -0.509414,0.07243 -0.544621,0.150905 -0.267085,0.595313 0.25093,0.401801 0.248609,0.625685 -0.01079,1.041051 -0.284727,0.455921 -0.264238,0.529167 0.148022,0.529167 0.654704,0 1.104846,0.503612 0.915661,1.024428 -0.128202,0.352931 -0.05274,0.339694 0.41755,-0.07325 0.546002,-0.479417 0.598832,-0.481583 1.081943,-0.04437 z m -1.291113,-1.290971 c -0.702854,-0.846887 0.329468,-2.147827 1.246222,-1.570498 0.587833,0.37019 0.731501,1.074887 0.320181,1.570498 -0.408679,0.492427 -1.157725,0.492427 -1.566403,0 z m 1.29375,-0.374797 c 0.305543,-0.570912 0.133082,-0.828538 -0.554646,-0.828538 -0.293982,0 -0.48507,0.191088 -0.48507,0.485069 0,0.919639 0.621483,1.124945 1.039716,0.343469 z m -2.098049,1.552712 c 0,-0.145521 -0.126089,-0.264583 -0.280198,-0.264583 -0.154109,0 -0.206614,0.119062 -0.116677,0.264583 0.08994,0.145521 0.216026,0.264583 0.280198,0.264583 0.06417,0 0.116677,-0.119062 0.116677,-0.264583 z"
       id="path319"
       inkscape:connector-curvature="0" />
  </g>
</svg>
