<?xml version="1.0" encoding="UTF-8" standalone="no"?>
<!-- Created with Inkscape (http://www.inkscape.org/) -->

<svg
   xmlns:dc="http://purl.org/dc/elements/1.1/"
   xmlns:cc="http://creativecommons.org/ns#"
   xmlns:rdf="http://www.w3.org/1999/02/22-rdf-syntax-ns#"
   xmlns:svg="http://www.w3.org/2000/svg"
   xmlns="http://www.w3.org/2000/svg"
   xmlns:sodipodi="http://sodipodi.sourceforge.net/DTD/sodipodi-0.dtd"
   xmlns:inkscape="http://www.inkscape.org/namespaces/inkscape"
   width="11.427094mm"
   height="6.5644283mm"
   viewBox="0 0 11.427092 6.5644283"
   version="1.1"
   id="svg8"
   inkscape:version="0.92.1 r15371"
   sodipodi:docname="icon5.svg">
  <defs
     id="defs2" />
  <sodipodi:namedview
     id="base"
     pagecolor="#ffffff"
     bordercolor="#666666"
     borderopacity="1.0"
     inkscape:pageopacity="0.0"
     inkscape:pageshadow="2"
     inkscape:zoom="7.9195959"
     inkscape:cx="36.087784"
     inkscape:cy="8.9393285"
     inkscape:document-units="mm"
     inkscape:current-layer="layer1"
     showgrid="false"
     fit-margin-top="0"
     fit-margin-left="0"
     fit-margin-right="0"
     fit-margin-bottom="0"
     inkscape:window-width="1440"
     inkscape:window-height="838"
     inkscape:window-x="-8"
     inkscape:window-y="-8"
     inkscape:window-maximized="1" />
  <metadata
     id="metadata5">
    <rdf:RDF>
      <cc:Work
         rdf:about="">
        <dc:format>image/svg+xml</dc:format>
        <dc:type
           rdf:resource="http://purl.org/dc/dcmitype/StillImage" />
        <dc:title></dc:title>
      </cc:Work>
    </rdf:RDF>
  </metadata>
  <g
     inkscape:label="Layer 1"
     inkscape:groupmode="layer"
     id="layer1"
     transform="translate(-54.840056,-46.180108)">
    <path
       style="fill:#a725fe;stroke-width:1"
       d="m 58.498545,51.638754 c -1.190925,-0.970122 -1.573544,-1.157147 -1.86776,-0.91297 -1.114112,0.924631 -1.861204,0.235494 -1.785453,-1.646949 0.112353,-2.791993 0.310977,-3.119287 1.698283,-2.798435 0.6272,0.145057 1.899833,0.206018 2.828073,0.13547 1.108328,-0.08424 1.988592,-0.0026 2.564167,0.237936 0.550884,0.230175 1.303739,0.307642 2.026717,0.208547 1.355732,-0.185823 1.582177,0.01643 2.017594,1.802046 0.485209,1.98981 0.453266,2.06565 -0.870024,2.06565 -0.920605,0 -1.207168,0.108298 -1.332643,0.503635 -0.18197,0.573338 -1.407586,1.205725 -2.820697,1.45541 -0.863843,0.152634 -1.111248,0.04693 -2.458257,-1.05034 z m 1.565216,0.148006 c -0.662877,-0.732471 -0.30378,-0.973875 0.43074,-0.289565 0.810354,0.75496 1.261157,0.707965 0.54289,-0.0566 -0.86068,-0.916152 -0.693821,-1.092475 0.309583,-0.327141 1.249597,0.953114 1.493297,0.837624 0.466955,-0.221292 -0.477755,-0.492919 -0.757456,-0.964936 -0.621557,-1.048926 0.135899,-0.08399 0.585241,0.200244 0.998537,0.631633 0.774009,0.807891 1.181612,0.985648 1.181612,0.515307 0,-1.031628 -2.884192,-2.913713 -3.439584,-2.244507 -0.833661,1.004501 -1.913618,0.132456 -1.354814,-1.093986 0.275029,-0.603622 0.250886,-0.655717 -0.268065,-0.57844 -0.465901,0.06938 -1.512602,2.488545 -1.198,2.768853 2.143956,1.910245 4.067334,3.177417 2.951703,1.944659 z m -3.25146,-3.003479 c 0.529126,-1.742066 0.493463,-1.906148 -0.453643,-2.087199 -0.833098,-0.159256 -0.818431,-0.18735 -1.046722,2.004909 -0.263751,2.532773 0.739358,2.58779 1.500365,0.08229 z m 7.07848,1.219164 c -0.1412,-2.569169 -4.203687,-4.325928 -4.903659,-2.120511 -0.23262,0.732919 0.06889,0.888731 0.668949,0.34569 0.716551,-0.64847 1.518371,-0.387759 2.779496,0.90375 0.993331,1.017263 1.479234,1.308118 1.455214,0.871071 z m 1.762634,-0.264584 c -0.07481,-0.254661 -0.215144,-0.909505 -0.311858,-1.455208 -0.152499,-0.86046 -0.271463,-0.992187 -0.896052,-0.992187 -0.987437,0 -1.096453,0.185061 -0.678288,1.151439 0.198233,0.458115 0.42491,1.041295 0.503726,1.295956 0.08834,0.285432 0.407026,0.463021 0.830895,0.463021 0.530275,0 0.656473,-0.105936 0.551577,-0.463021 z"
       id="path223"
       inkscape:connector-curvature="0" />
  </g>
</svg>
