<?xml version="1.0" encoding="UTF-8" standalone="no"?>
<!-- Created with Inkscape (http://www.inkscape.org/) -->

<svg
   xmlns:dc="http://purl.org/dc/elements/1.1/"
   xmlns:cc="http://creativecommons.org/ns#"
   xmlns:rdf="http://www.w3.org/1999/02/22-rdf-syntax-ns#"
   xmlns:svg="http://www.w3.org/2000/svg"
   xmlns="http://www.w3.org/2000/svg"
   xmlns:sodipodi="http://sodipodi.sourceforge.net/DTD/sodipodi-0.dtd"
   xmlns:inkscape="http://www.inkscape.org/namespaces/inkscape"
   width="12.944877mm"
   height="13.054302mm"
   viewBox="0 0 12.944876 13.054302"
   version="1.1"
   id="svg4923"
   inkscape:version="0.92.1 r15371"
   sodipodi:docname="insta.svg">
  <defs
     id="defs4917" />
  <sodipodi:namedview
     id="base"
     pagecolor="#ffffff"
     bordercolor="#666666"
     borderopacity="1.0"
     inkscape:pageopacity="0.0"
     inkscape:pageshadow="2"
     inkscape:zoom="7.9195959"
     inkscape:cx="49.669183"
     inkscape:cy="19.952847"
     inkscape:document-units="mm"
     inkscape:current-layer="layer1"
     showgrid="false"
     fit-margin-top="0"
     fit-margin-left="0"
     fit-margin-right="0"
     fit-margin-bottom="0"
     inkscape:window-width="1440"
     inkscape:window-height="838"
     inkscape:window-x="-8"
     inkscape:window-y="-8"
     inkscape:window-maximized="1" />
  <metadata
     id="metadata4920">
    <rdf:RDF>
      <cc:Work
         rdf:about="">
        <dc:format>image/svg+xml</dc:format>
        <dc:type
           rdf:resource="http://purl.org/dc/dcmitype/StillImage" />
        <dc:title></dc:title>
      </cc:Work>
    </rdf:RDF>
  </metadata>
  <g
     inkscape:label="Layer 1"
     inkscape:groupmode="layer"
     id="layer1"
     transform="translate(-188.01258,-127.41902)">
    <g
       id="g5508"
       transform="translate(-7.3705359,-26.046948)"
       style="fill:#9700f2;fill-opacity:1">
      <path
         style="fill:#9700f2;stroke-width:1;fill-opacity:1"
         d="m 200.74103,165.61735 c 0.191,-0.0764 0.4192,-0.067 0.50712,0.0209 0.0879,0.0879 -0.0684,0.15045 -0.34727,0.13896 -0.30822,-0.0127 -0.37092,-0.0754 -0.15985,-0.15985 z m 1.85208,0 c 0.191,-0.0764 0.4192,-0.067 0.50712,0.0209 0.0879,0.0879 -0.0684,0.15045 -0.34726,0.13896 -0.30823,-0.0127 -0.37092,-0.0754 -0.15986,-0.15985 z m -3.0461,-4.84635 c 0,-0.80036 0.0496,-1.12778 0.11022,-0.7276 0.0606,0.40018 0.0606,1.05503 0,1.45521 -0.0606,0.40018 -0.11022,0.0728 -0.11022,-0.72761 z m 4.49792,0 c 0,-0.80036 0.0496,-1.12778 0.11022,-0.7276 0.0606,0.40018 0.0606,1.05503 0,1.45521 -0.0606,0.40018 -0.11022,0.0728 -0.11022,-0.72761 z m -7.9959,0.11025 c 0.0127,-0.30823 0.0754,-0.37092 0.15985,-0.15986 0.0764,0.191 0.067,0.4192 -0.0209,0.50712 -0.0879,0.0879 -0.15045,-0.0684 -0.13896,-0.34726 z m 0,-1.85209 c 0.0127,-0.30822 0.0754,-0.37092 0.15985,-0.15985 0.0764,0.191 0.067,0.4192 -0.0209,0.50712 -0.0879,0.0879 -0.15045,-0.0684 -0.13896,-0.34727 z m 11.37708,0 c 0.0127,-0.30822 0.0754,-0.37092 0.15985,-0.15985 0.0764,0.191 0.067,0.4192 -0.0209,0.50712 -0.0879,0.0879 -0.15046,-0.0684 -0.13897,-0.34727 z m -3.46047,-0.97278 c 0,-0.23187 -0.20836,-0.47603 -0.46302,-0.54258 -0.43394,-0.1134 -0.43342,-0.12292 0.008,-0.15169 0.47836,-0.0311 0.9216,0.64896 0.6197,0.95086 -0.0907,0.0907 -0.16498,-0.0247 -0.16498,-0.25659 z m -3.22461,-3.81612 c 0.191,-0.0764 0.4192,-0.067 0.50712,0.0209 0.0879,0.0879 -0.0684,0.15045 -0.34727,0.13897 -0.30822,-0.0127 -0.37092,-0.0754 -0.15985,-0.15986 z m 1.85208,0 c 0.191,-0.0764 0.4192,-0.067 0.50712,0.0209 0.0879,0.0879 -0.0684,0.15045 -0.34726,0.13897 -0.30823,-0.0127 -0.37092,-0.0754 -0.15986,-0.15986 z"
         id="path5514"
         inkscape:connector-curvature="0" />
      <path
         style="fill:#9700f2;stroke-width:1;fill-opacity:1"
         d="m 197.08647,164.60746 c -0.18115,-0.21828 -0.26984,-0.39687 -0.19708,-0.39687 0.0728,0 0.28051,0.17859 0.46167,0.39687 0.18115,0.21828 0.26984,0.39688 0.19708,0.39688 -0.0728,0 -0.28051,-0.1786 -0.46167,-0.39688 z m 8.99584,0.29698 c 0,-0.0549 0.20836,-0.2633 0.46302,-0.46302 0.41964,-0.32911 0.429,-0.31975 0.0999,0.0999 -0.34564,0.44073 -0.56291,0.58088 -0.56291,0.36312 z m -5.49011,-1.94667 c 0.69123,-0.0545 1.82232,-0.0545 2.51354,0 0.69123,0.0545 0.12568,0.0991 -1.25677,0.0991 -1.38244,0 -1.94799,-0.0446 -1.25677,-0.0991 z m 2.79466,-4.48417 c 0.191,-0.0764 0.4192,-0.067 0.50712,0.0209 0.0879,0.0879 -0.0684,0.15045 -0.34726,0.13896 -0.30823,-0.0127 -0.37092,-0.0754 -0.15986,-0.15985 z m -2.79466,-1.60124 c 0.69123,-0.0545 1.82232,-0.0545 2.51354,0 0.69123,0.0545 0.12568,0.0991 -1.25677,0.0991 -1.38244,0 -1.94799,-0.0446 -1.25677,-0.0991 z m -3.77031,-1.22833 c 0,-0.0549 0.20836,-0.26331 0.46302,-0.46303 0.41964,-0.3291 0.429,-0.31974 0.0999,0.0999 -0.34565,0.44073 -0.56292,0.58089 -0.56292,0.36313 z m 9.525,-0.29698 c -0.18116,-0.21829 -0.26985,-0.39688 -0.19708,-0.39688 0.0728,0 0.28051,0.17859 0.46166,0.39688 0.18116,0.21828 0.26985,0.39687 0.19709,0.39687 -0.0728,0 -0.28051,-0.17859 -0.46167,-0.39687 z"
         id="path5512"
         inkscape:connector-curvature="0" />
      <path
         style="fill:#9700f2;stroke-width:1;fill-opacity:1"
         d="m 199.73696,166.07387 c -4.68089,-1.6157 -5.87037,-7.58579 -2.17465,-10.91469 3.56028,-3.2069 9.1644,-1.5502 10.51906,3.10965 0.97139,3.34147 -1.01461,6.90211 -4.41257,7.9112 -1.75027,0.51978 -2.14968,0.50899 -3.93184,-0.10616 z m 5.24785,-1.1445 c 0.60114,-0.39782 1.42142,-1.21961 1.82284,-1.8262 0.63696,-0.96251 0.72987,-1.3604 0.72987,-3.12592 0,-1.76551 -0.0929,-2.1634 -0.72987,-3.12591 -0.40142,-0.6066 -1.22617,-1.43134 -1.83276,-1.83277 -0.96251,-0.63696 -1.3604,-0.72986 -3.12592,-0.72986 -1.76551,0 -2.1634,0.0929 -3.12591,0.72986 -1.66086,1.09911 -2.52042,2.57296 -2.64541,4.53601 -0.16329,2.56431 0.95768,4.56641 3.19207,5.70116 1.62254,0.82402 4.19907,0.67688 5.71509,-0.32637 z m -5.92923,-2.38297 c -0.076,-0.19794 -0.1036,-1.48205 -0.0614,-2.85358 l 0.0767,-2.49369 h 2.77812 2.77813 v 2.77812 2.77813 l -2.71671,0.0754 c -2.09989,0.0583 -2.74807,-0.006 -2.85481,-0.28443 z m 5.17464,-1.6431 c 0,-1.00709 -0.10444,-1.45521 -0.33916,-1.45521 -0.18655,0 -0.36424,0.32742 -0.39487,0.7276 -0.0613,0.80037 -0.91124,1.65365 -1.64722,1.65365 -0.74608,0 -1.63254,-0.87821 -1.67807,-1.66245 -0.0229,-0.39514 -0.19055,-0.71851 -0.37245,-0.71862 -0.22451,-1.2e-4 -0.33073,0.46715 -0.33073,1.45503 v 1.4552 h 2.38125 2.38125 z m -1.43087,-0.26459 c 0.40148,-0.61274 0.40148,-0.71017 0,-1.32291 -0.23838,-0.36381 -0.66604,-0.66146 -0.95038,-0.66146 -0.28433,0 -0.712,0.29765 -0.95037,0.66146 -0.40148,0.61274 -0.40148,0.71017 0,1.32291 0.23837,0.3638 0.66604,0.66146 0.95037,0.66146 0.28434,0 0.712,-0.29766 0.95038,-0.66146 z m 1.38124,-2.58352 c 0.10175,-0.52832 -0.65282,-0.9209 -1.03516,-0.53856 -0.37026,0.37026 0.018,1.17814 0.51973,1.08151 0.23468,-0.0452 0.46663,-0.28952 0.51543,-0.54295 z"
         id="path5510"
         inkscape:connector-curvature="0" />
    </g>
  </g>
</svg>
