<?xml version="1.0" encoding="UTF-8" standalone="no"?>
<!-- Created with Inkscape (http://www.inkscape.org/) -->

<svg
   xmlns:dc="http://purl.org/dc/elements/1.1/"
   xmlns:cc="http://creativecommons.org/ns#"
   xmlns:rdf="http://www.w3.org/1999/02/22-rdf-syntax-ns#"
   xmlns:svg="http://www.w3.org/2000/svg"
   xmlns="http://www.w3.org/2000/svg"
   xmlns:sodipodi="http://sodipodi.sourceforge.net/DTD/sodipodi-0.dtd"
   xmlns:inkscape="http://www.inkscape.org/namespaces/inkscape"
   width="12.944877mm"
   height="13.054302mm"
   viewBox="0 0 12.944876 13.054302"
   version="1.1"
   id="svg4923"
   inkscape:version="0.92.1 r15371"
   sodipodi:docname="skype.svg">
  <defs
     id="defs4917" />
  <sodipodi:namedview
     id="base"
     pagecolor="#ffffff"
     bordercolor="#666666"
     borderopacity="1.0"
     inkscape:pageopacity="0.0"
     inkscape:pageshadow="2"
     inkscape:zoom="7.9195959"
     inkscape:cx="49.669183"
     inkscape:cy="19.952847"
     inkscape:document-units="mm"
     inkscape:current-layer="g5570"
     showgrid="false"
     fit-margin-top="0"
     fit-margin-left="0"
     fit-margin-right="0"
     fit-margin-bottom="0"
     inkscape:window-width="1440"
     inkscape:window-height="838"
     inkscape:window-x="-8"
     inkscape:window-y="-8"
     inkscape:window-maximized="1" />
  <metadata
     id="metadata4920">
    <rdf:RDF>
      <cc:Work
         rdf:about="">
        <dc:format>image/svg+xml</dc:format>
        <dc:type
           rdf:resource="http://purl.org/dc/dcmitype/StillImage" />
        <dc:title></dc:title>
      </cc:Work>
    </rdf:RDF>
  </metadata>
  <g
     inkscape:label="Layer 1"
     inkscape:groupmode="layer"
     id="layer1"
     transform="translate(-188.01258,-127.41902)">
    <g
       id="g5570"
       transform="translate(-16.470485,-5.4456166)">
      <path
         style="fill:#9e9e9e;stroke-width:1"
         d="m 209.8564,144.97752 c 0.191,-0.0764 0.4192,-0.067 0.50712,0.0209 0.0879,0.0879 -0.0683,0.15045 -0.34727,0.13896 -0.30822,-0.0127 -0.37092,-0.0754 -0.15985,-0.15985 z m 1.85208,0 c 0.191,-0.0764 0.4192,-0.067 0.50712,0.0209 0.0879,0.0879 -0.0683,0.15045 -0.34726,0.13896 -0.30823,-0.0127 -0.37092,-0.0754 -0.15986,-0.15985 z m 0.3142,-3.35874 c 0,-0.0549 0.20836,-0.2633 0.46302,-0.46302 0.41964,-0.32911 0.429,-0.31975 0.0999,0.0999 -0.34564,0.44073 -0.56291,0.58089 -0.56291,0.36313 z m -6.85828,-1.37736 c 0.0127,-0.30823 0.0754,-0.37092 0.15985,-0.15986 0.0764,0.191 0.067,0.4192 -0.0209,0.50712 -0.0879,0.0879 -0.15045,-0.0684 -0.13896,-0.34726 z m 11.37708,0 c 0.0127,-0.30823 0.0754,-0.37092 0.15985,-0.15986 0.0764,0.191 0.067,0.4192 -0.0209,0.50712 -0.0879,0.0879 -0.15046,-0.0684 -0.13897,-0.34726 z m -11.37708,-1.85209 c 0.0127,-0.30822 0.0754,-0.37092 0.15985,-0.15985 0.0764,0.191 0.067,0.4192 -0.0209,0.50712 -0.0879,0.0879 -0.15045,-0.0684 -0.13896,-0.34727 z m 7.27216,0.0768 c 0.0994,-0.26094 0.24731,-0.40778 0.32877,-0.32632 0.0815,0.0815 1.7e-4,0.29495 -0.18065,0.47443 -0.26131,0.25936 -0.2917,0.22897 -0.14812,-0.14811 z m 4.10492,-0.0768 c 0.0127,-0.30822 0.0754,-0.37092 0.15985,-0.15985 0.0764,0.191 0.067,0.4192 -0.0209,0.50712 -0.0879,0.0879 -0.15046,-0.0684 -0.13897,-0.34727 z m -5.9129,-1.07754 c 0.17913,-0.0725 0.53632,-0.0769 0.79375,-0.01 0.25743,0.0671 0.11087,0.12638 -0.32569,0.13177 -0.43657,0.005 -0.64719,-0.0495 -0.46806,-0.12197 z m -0.77218,-3.71136 c 0.191,-0.0764 0.4192,-0.067 0.50712,0.0209 0.0879,0.0879 -0.0683,0.15045 -0.34727,0.13897 -0.30822,-0.0127 -0.37092,-0.0754 -0.15985,-0.15986 z m 1.85208,0 c 0.191,-0.0764 0.4192,-0.067 0.50712,0.0209 0.0879,0.0879 -0.0683,0.15045 -0.34726,0.13897 -0.30823,-0.0127 -0.37092,-0.0754 -0.15986,-0.15986 z"
         id="path5576"
         inkscape:connector-curvature="0" />
      <path
         style="fill:#5a5a5a;stroke-width:1"
         d="m 206.20184,143.96763 c -0.18115,-0.21828 -0.26984,-0.39687 -0.19708,-0.39687 0.0728,0 0.28051,0.17859 0.46167,0.39687 0.18115,0.21828 0.26984,0.39688 0.19708,0.39688 -0.0728,0 -0.28051,-0.1786 -0.46167,-0.39688 z m 8.99584,0.29698 c 0,-0.0549 0.20836,-0.2633 0.46302,-0.46302 0.41964,-0.32911 0.429,-0.31975 0.0999,0.0999 -0.34564,0.44073 -0.56291,0.58088 -0.56291,0.36312 z m -4.5691,-2.4549 c 0.17913,-0.0725 0.53632,-0.0769 0.79375,-0.01 0.25743,0.0671 0.11087,0.12639 -0.32569,0.13178 -0.43657,0.005 -0.64719,-0.0495 -0.46806,-0.12197 z m 2.20873,-1.30371 c 0.0127,-0.30822 0.0754,-0.37092 0.15986,-0.15985 0.0764,0.19099 0.067,0.4192 -0.0209,0.50712 -0.0879,0.0879 -0.15045,-0.0684 -0.13897,-0.34727 z m -2.66672,-1.94671 c 0,-0.13693 0.1177,-0.32171 0.26156,-0.41062 0.14998,-0.0927 0.19433,0.0135 0.10398,0.24897 -0.17589,0.45837 -0.36554,0.54223 -0.36554,0.16165 z m -4.23333,-3.55509 c 0,-0.0549 0.20836,-0.26331 0.46302,-0.46303 0.41964,-0.3291 0.429,-0.31974 0.0999,0.0999 -0.34565,0.44073 -0.56292,0.58089 -0.56292,0.36313 z m 9.525,-0.29698 c -0.18116,-0.21829 -0.26985,-0.39688 -0.19708,-0.39688 0.0728,0 0.28051,0.17859 0.46166,0.39688 0.18116,0.21828 0.26985,0.39687 0.19709,0.39687 -0.0728,0 -0.28051,-0.17859 -0.46167,-0.39687 z"
         id="path5574"
         inkscape:connector-curvature="0" />
      <path
         style="fill:#9700f2;stroke-width:1;fill-opacity:1"
         d="m 208.85233,145.43404 c -4.68089,-1.6157 -5.87037,-7.58579 -2.17465,-10.91469 3.56028,-3.2069 9.1644,-1.5502 10.51906,3.10965 0.97139,3.34147 -1.01461,6.90211 -4.41257,7.9112 -1.75027,0.51978 -2.14968,0.50899 -3.93184,-0.10616 z m 5.24785,-1.1445 c 0.60114,-0.39782 1.42142,-1.21961 1.82284,-1.8262 0.63696,-0.96251 0.72987,-1.3604 0.72987,-3.12592 0,-1.76551 -0.0929,-2.1634 -0.72987,-3.12591 -0.40142,-0.6066 -1.22617,-1.43134 -1.83276,-1.83277 -0.96251,-0.63696 -1.3604,-0.72986 -3.12592,-0.72986 -1.76551,0 -2.1634,0.0929 -3.12591,0.72986 -1.66086,1.09911 -2.52042,2.57296 -2.64541,4.53601 -0.16329,2.56431 0.95768,4.56641 3.19207,5.70116 1.62254,0.82402 4.19907,0.67688 5.71509,-0.32637 z m -2.8965,-1.78045 c -2.17379,-0.36773 -2.92083,-1.23817 -3.24584,-3.78201 -0.14263,-1.11631 -0.0829,-1.35136 0.48829,-1.92258 0.55932,-0.55932 0.8099,-0.62755 1.78294,-0.48548 0.62268,0.0909 1.54887,0.36076 2.05819,0.59966 1.03663,0.48624 1.70115,1.64524 1.96007,3.4186 0.14223,0.97409 0.074,1.22343 -0.48848,1.78594 -0.69826,0.69826 -0.70365,0.69907 -2.55517,0.38587 z m 1.23502,-1.13665 c 0.98508,-0.84733 0.69951,-1.60378 -0.82528,-2.1861 -0.64804,-0.24749 -1.17824,-0.54583 -1.17824,-0.663 0,-0.47547 0.59209,-0.52846 1.23054,-0.11013 0.51494,0.3374 0.75089,0.3702 0.98055,0.13631 0.41776,-0.42542 -0.71122,-1.32876 -1.66067,-1.32876 -2.14125,0 -2.26644,2.3992 -0.14594,2.79701 0.52457,0.0984 0.91843,0.32986 0.91843,0.53972 0,0.4429 -1.09282,0.49169 -1.5168,0.0677 -0.39463,-0.39463 -1.16047,-0.0901 -0.97684,0.38844 0.3881,1.01138 2.18009,1.21393 3.17425,0.35879 z"
         id="path5572"
         inkscape:connector-curvature="0" />
    </g>
  </g>
</svg>
