<?xml version="1.0" encoding="UTF-8" standalone="no"?>
<!-- Created with Inkscape (http://www.inkscape.org/) -->

<svg
   xmlns:dc="http://purl.org/dc/elements/1.1/"
   xmlns:cc="http://creativecommons.org/ns#"
   xmlns:rdf="http://www.w3.org/1999/02/22-rdf-syntax-ns#"
   xmlns:svg="http://www.w3.org/2000/svg"
   xmlns="http://www.w3.org/2000/svg"
   xmlns:sodipodi="http://sodipodi.sourceforge.net/DTD/sodipodi-0.dtd"
   xmlns:inkscape="http://www.inkscape.org/namespaces/inkscape"
   width="29.952244mm"
   height="5.1000042mm"
   viewBox="0 0 29.952243 5.1000043"
   version="1.1"
   id="svg3815"
   inkscape:version="0.92.1 r15371"
   sodipodi:docname="socials.svg">
  <defs
     id="defs3809" />
  <sodipodi:namedview
     id="base"
     pagecolor="#ffffff"
     bordercolor="#666666"
     borderopacity="1.0"
     inkscape:pageopacity="0.0"
     inkscape:pageshadow="2"
     inkscape:zoom="3.959798"
     inkscape:cx="106.48635"
     inkscape:cy="-22.856587"
     inkscape:document-units="mm"
     inkscape:current-layer="layer1"
     showgrid="false"
     fit-margin-top="0"
     fit-margin-left="0"
     fit-margin-right="0"
     fit-margin-bottom="0"
     inkscape:window-width="1440"
     inkscape:window-height="838"
     inkscape:window-x="-8"
     inkscape:window-y="-8"
     inkscape:window-maximized="1" />
  <metadata
     id="metadata3812">
    <rdf:RDF>
      <cc:Work
         rdf:about="">
        <dc:format>image/svg+xml</dc:format>
        <dc:type
           rdf:resource="http://purl.org/dc/dcmitype/StillImage" />
        <dc:title></dc:title>
      </cc:Work>
    </rdf:RDF>
  </metadata>
  <g
     inkscape:label="Layer 1"
     inkscape:groupmode="layer"
     id="layer1"
     transform="translate(-75.535823,-157.87936)">
    <path
       style="fill:#a92bfe;stroke-width:1"
       d="m 76.336383,162.17221 c -1.067413,-1.06742 -1.067413,-2.41288 0,-3.48029 1.041503,-1.0415 2.342393,-1.05525 3.482223,-0.0368 1.16644,1.04221 1.16644,2.5117 0,3.55391 -1.13983,1.01844 -2.44072,1.00469 -3.482223,-0.0368 z m 3.393793,-0.44195 c 0.76592,-0.85719 0.7553,-1.74416 -0.0319,-2.65928 -1.59998,-1.86009 -4.603939,0.0245 -3.54829,2.2261 0.709745,1.4802 2.45584,1.69147 3.58015,0.43318 z m -2.740016,-0.4821 c -0.07905,-0.20599 -0.105075,-0.712 -0.05784,-1.12448 0.07752,-0.677 0.195261,-0.75787 1.210356,-0.83131 l 1.12448,-0.0814 v 1.20584 1.20584 h -1.06664 c -0.67575,0 -1.119303,-0.13725 -1.210354,-0.37453 z m 0.684186,-0.29333 c -0.18408,-0.22179 -0.38917,-0.34878 -0.455766,-0.28218 -0.183488,0.18349 0.189326,0.68545 0.509086,0.68545 0.17545,0 0.15537,-0.15181 -0.0533,-0.40327 z m 1.32823,-0.026 c 0,-0.35157 -0.0718,-0.36965 -0.39688,-0.0999 -0.21828,0.18115 -0.39687,0.37433 -0.39687,0.42927 0,0.0549 0.17859,0.0999 0.39687,0.0999 0.21828,0 0.39688,-0.19317 0.39688,-0.42927 z m -0.52917,-0.49677 c 0,-0.21828 -0.17859,-0.39687 -0.39687,-0.39687 -0.41317,0 -0.52493,0.31292 -0.22049,0.61736 0.30444,0.30444 0.61736,0.19268 0.61736,-0.22049 z m 6.19125,1.61396 c -0.57882,-0.57882 -0.89958,-1.15431 -0.89958,-1.61396 0,-0.45965 0.32076,-1.03514 0.89958,-1.61396 1.22408,-1.22408 2.52757,-1.25208 3.62447,-0.0779 1.04832,1.12223 1.0462,2.37997 -0.006,3.43196 -1.11835,1.11834 -2.41953,1.07297 -3.61868,-0.12619 z m 2.78566,0.24791 c 1.58924,-0.82183 1.47621,-3.13302 -0.1869,-3.8219 -1.41962,-0.58803 -2.95235,0.42954 -2.95235,1.96003 0,0.94129 0.45379,1.61017 1.33009,1.96054 0.86985,0.3478 0.95474,0.34317 1.80916,-0.0987 z m -1.71217,-1.18213 c 0.0837,-0.13546 0.0312,-0.32108 -0.11668,-0.41249 -0.14789,-0.0914 -0.26889,-0.34578 -0.26889,-0.56528 0,-0.27868 0.15964,-0.34842 0.52916,-0.23113 0.30356,0.0963 0.52917,0.0475 0.52917,-0.11447 0,-0.15532 0.23812,-0.28241 0.52916,-0.28241 0.63463,0 0.67768,0.46398 0.11729,1.26405 -0.38532,0.55011 -1.65056,0.87787 -1.31921,0.34173 z m 7.0024,1.06041 c -1.06741,-1.06742 -1.06741,-2.41288 0,-3.48029 1.11835,-1.11835 2.41953,-1.07298 3.61869,0.12618 0.57882,0.57882 0.89958,1.15431 0.89958,1.61396 0,0.45965 -0.32076,1.03514 -0.89958,1.61396 -1.19916,1.19916 -2.50034,1.24453 -3.61869,0.12619 z m 2.56126,0.23382 c 0.95422,-0.36279 1.41102,-1.00184 1.41102,-1.97397 0,-0.98119 -0.45788,-1.61159 -1.44245,-1.98592 -2.50249,-0.95144 -3.94813,2.63597 -1.58343,3.92936 0.66513,0.3638 0.73484,0.36512 1.61486,0.0305 z m -0.97163,-0.79657 c -0.117299,-1.73688 -0.17224,-1.74165 0.0629,-2.02501 0.383331,-0.61845 0.74887,-0.36056 0.59309,0.64917 -0.1268,0.82187 -0.5916,1.79665 -0.65603,1.37584 z m 6.875114,0.59956 c -0.65814,-0.58805 -0.82438,-0.94639 -0.82438,-1.77696 0,-0.83056 0.16624,-1.18891 0.82438,-1.77695 1.13983,-1.01844 2.44072,-1.00469 3.48222,0.0368 1.06741,1.06741 1.06741,2.41287 0,3.48029 -1.0415,1.0415 -2.34239,1.05525 -3.48222,0.0368 z m 3.31634,-0.33255 c 0.71424,-0.70132 0.68341,-2.21474 -0.0603,-2.95841 -1.77153,-1.77154 -4.768944,0.62148 -3.33777,2.66475 0.82539,1.17842 2.36177,1.31119 3.39804,0.29366 z m -1.6212,-0.19173 c -0.80319,-0.13081 -1.19687,-0.69347 -1.09666,-1.56741 0.1775,-1.54804 2.33422,-0.89924 2.33422,0.7022 0,0.79673 -0.31325,1.01574 -1.23756,0.86521 z m 0.59763,-0.62606 c 0.10178,-0.16468 -0.0347,-0.42243 -0.30338,-0.57276 -0.4732,-0.26482 -0.4729,-0.27879 0.01,-0.44806 0.40972,-0.14372 0.42685,-0.20206 0.0966,-0.3288 -0.22083,-0.0847 -0.56932,-0.0438 -0.7744,0.0911 -0.31253,0.20545 -0.29793,0.30257 0.0901,0.6 0.57346,0.43951 0.60577,0.8048 0.0524,0.59246 -0.23546,-0.0904 -0.34166,-0.046 -0.24897,0.10398 0.2184,0.35337 0.84991,0.33119 1.07799,-0.0379 z"
       id="path4087"
       inkscape:connector-curvature="0"
       sodipodi:nodetypes="csccccccsccccccccsccccsccscssssssscssccccccscccccscsscccssssccsscccccccccsccccccccccccsccccccccccc" />
    <path
       style="fill:#000000;stroke-width:1"
       d=""
       id="path4061"
       inkscape:connector-curvature="0" />
    <path
       style="fill:#000000;stroke-width:1"
       d=""
       id="path4059"
       inkscape:connector-curvature="0" />
    <path
       style="fill:#000000;stroke-width:1"
       d=""
       id="path4057"
       inkscape:connector-curvature="0" />
    <path
       style="fill:#000000;stroke-width:1"
       d=""
       id="path4055"
       inkscape:connector-curvature="0" />
    <path
       style="fill:#000000;stroke-width:1"
       d=""
       id="path4053"
       inkscape:connector-curvature="0" />
    <path
       style="fill:#000000;stroke-width:1"
       d=""
       id="path3993"
       inkscape:connector-curvature="0" />
    <path
       style="fill:#000000;stroke-width:1"
       d=""
       id="path3991"
       inkscape:connector-curvature="0" />
    <path
       style="fill:#000000;stroke-width:1"
       d=""
       id="path3989"
       inkscape:connector-curvature="0" />
    <path
       style="fill:#000000;stroke-width:1"
       d=""
       id="path3987"
       inkscape:connector-curvature="0" />
  </g>
</svg>
